<?xml version="1.0" encoding="utf-8"?>
<!-- Generator: Adobe Illustrator 25.4.1, SVG Export Plug-In . SVG Version: 6.00 Build 0)  -->
<svg version="1.1" id="Layer_1" xmlns="http://www.w3.org/2000/svg" xmlns:xlink="http://www.w3.org/1999/xlink" x="0px" y="0px"
	 viewBox="0 0 64 64" style="enable-background:new 0 0 64 64;" xml:space="preserve">
<style type="text/css">
	.st0{fill:#1669B4;}
	.st1{fill:#5AAEED;}
</style>
<path class="st0" d="M59.7,37.6c-1.7-3.1-4.6-5.4-8-6.3c-0.2-0.1-0.5,0-0.7,0.1c-0.2,0.1-0.4,0.3-0.5,0.6c-0.1,0.2-0.1,0.5,0.1,0.7
	c0.1,0.2,0.3,0.4,0.5,0.5c8.3,2.6,9.6,10.8,6,16.8c-1.5,2.6-4.6,4.9-6.6,6.2l0.4-2.3c0.5-5,1.5-10.4-1.5-14.9
	c-0.3-0.4-5.7-6.6-8.1-8.8c-3.7-3.3-7-7-9.7-11.1c-3.4-4.9-5.1-8.3-8.6-12.2C21.5,5.1,19,5.1,17,5c-0.8-0.1-1.6,0-2.3,0.3
	c-0.7,0.3-1.4,0.7-2,1.3c-1.2,1.2-2.6,2.2-4,3l-4.1,2.3c-0.7,0.4-1.2,0.9-1.4,1.7c-0.2,0.7-0.2,1.5,0.1,2.2l0.9,2.2
	c0.5,1.1,1.3,2,2.4,2.5c1,0.6,2.2,0.8,3.4,0.7l2-0.3c0.3,0,0.6,0,0.9,0.2c0.3,0.2,0.4,0.4,0.5,0.7c0.5,1.6-0.2,3.7-0.6,5.3
	c-0.4,1.7-0.5,3.4-0.2,5.1c0.3,1.7,1,3.3,2,4.7l2.4,3.4c1,2.8,1.5,5.9,1.2,8.9l-0.4,4c0,0.6-0.9,1.3-1.2,1.7
	c-0.7,0.6-1.9,1.1-1.9,2.2V58c0,0.3,0.1,0.5,0.3,0.7s0.4,0.3,0.7,0.3h4.7c0.5,0.1,1.4-0.9,1.8-1.1c0.9-0.7,1.5-1.6,1.6-2.7L25.9,42
	l2.4,4.7c-0.2,2.5,0.9,4.9,2.1,7.1h-2.6c-0.3,0-0.6,0.1-0.9,0.2c-0.3,0.1-0.6,0.3-0.8,0.5s-0.4,0.5-0.5,0.8
	c-0.1,0.3-0.2,0.6-0.2,0.9l0.1,1.9c0,0.3,0.1,0.5,0.3,0.7s0.4,0.3,0.7,0.3h22.7c0.1,0,0.3,0,0.4-0.1c1.4-0.6,6.9-4,9.3-8
	C59.8,49.3,62.7,43.4,59.7,37.6z"/>
<path class="st1" d="M18.1,18.3c-1.5,0-2.2-1.8-2.6-3.2c-0.6-1.7-0.8-3.5-0.6-5.3c0.1-1,0.4-3.2,0.4-3.9c0-0.1,0.1-0.3,0.1-0.4
	c0.1-0.1,0.2-0.2,0.3-0.3C15.8,5.1,15.9,5,16,5c0.1,0,0.3,0,0.4,0c0.1,0,0.3,0.1,0.4,0.1c0.1,0.1,0.2,0.2,0.3,0.3
	c0.1,0.1,0.1,0.2,0.2,0.4c0,0.1,0,0.3,0,0.4c-0.2,1.3-0.4,3-0.4,3.7c-0.2,1.6,0,3.1,0.6,4.6c0.1,0.6,0.4,1.2,0.7,1.8
	c0.6-0.7,1-1.4,1.3-2.2l1.8-6.7c0.1-0.2,0.2-0.4,0.5-0.6c0.2-0.1,0.5-0.2,0.7-0.1s0.5,0.2,0.6,0.4c0.1,0.2,0.2,0.5,0.1,0.7l-1.8,6.9
	c-0.4,1.2-1.1,2.3-2,3.2C19,18.1,18.5,18.3,18.1,18.3L18.1,18.3z"/>
</svg>
