<?xml version="1.0" encoding="utf-8"?>
<!-- Generator: Adobe Illustrator 25.4.1, SVG Export Plug-In . SVG Version: 6.00 Build 0)  -->
<svg version="1.1" id="Layer_1" xmlns="http://www.w3.org/2000/svg" xmlns:xlink="http://www.w3.org/1999/xlink" x="0px" y="0px"
	 viewBox="0 0 48 48" style="enable-background:new 0 0 48 48;" xml:space="preserve">
<style type="text/css">
	.st0{fill:#1669B4;}
</style>
<g id="Sofa">
	<path class="st0" d="M41.5,40H38c0,1.1,0.9,2,2,2h1c1.1,0,2-0.9,2-2v-0.2C42.5,39.9,42,40,41.5,40z"/>
	<path class="st0" d="M6.5,40c-0.5,0-1-0.1-1.5-0.2V40c0,1.1,0.9,2,2,2h1c1.1,0,2-0.9,2-2H6.5z"/>
	<path class="st0" d="M36,6H12c-3.9,0-7,3.1-7,7v2c3.9,0,7,3.1,7,7v1.6c0.6-0.4,1.3-0.6,2-0.6h20c0.7,0,1.4,0.2,2,0.6V22
		c0-3.9,3.1-7,7-7v-2C43,9.1,39.9,6,36,6z M16,19c-0.6,0-1-0.4-1-1s0.4-1,1-1c0.6,0,1,0.4,1,1S16.6,19,16,19z M16,13
		c-0.6,0-1-0.4-1-1s0.4-1,1-1c0.6,0,1,0.4,1,1S16.6,13,16,13z M24,19c-0.6,0-1-0.4-1-1s0.4-1,1-1s1,0.4,1,1S24.6,19,24,19z M24,13
		c-0.6,0-1-0.4-1-1s0.4-1,1-1s1,0.4,1,1S24.6,13,24,13z M32,19c-0.6,0-1-0.4-1-1s0.4-1,1-1s1,0.4,1,1S32.6,19,32,19z M32,13
		c-0.6,0-1-0.4-1-1s0.4-1,1-1s1,0.4,1,1S32.6,13,32,13z"/>
	<path class="st0" d="M36,30v-3c0-1.1-0.9-2-2-2H14c-1.1,0-2,0.9-2,2v3H36z"/>
	<path class="st0" d="M42.5,17c-2.6,0.3-4.6,2.6-4.5,5.2v8.7c0,0.6-0.5,1.1-1.1,1.1H11.1c-0.6,0-1.1-0.5-1.1-1.1v-8.7
		c0-2.6-1.9-4.9-4.5-5.2c-2.7-0.3-5.2,1.7-5.5,4.5c-0.2,2.2,1,4.2,3,5.1v7.9C3,36.4,4.6,38,6.5,38h35c1.9,0,3.5-1.6,3.5-3.5v-7.9
		c2.5-1.1,3.7-4.1,2.6-6.6C46.7,18,44.7,16.8,42.5,17z"/>
</g>
</svg>
