<svg width="15" height="18" viewBox="0 0 15 18" fill="none" xmlns="http://www.w3.org/2000/svg">
<path d="M12.4259 0H2.57407C1.14815 0 0 1.17437 0 2.63285V17.142C0 17.9375 0.962963 18.2974 1.46296 17.7102L4.48148 14.225H12.4259C13.8519 14.225 15 13.0506 15 11.5921V2.63285C15 1.17437 13.8519 0 12.4259 0ZM6.55556 3.42839C6.55556 2.89803 6.98148 2.46238 7.5 2.46238C8.01852 2.46238 8.44444 2.89803 8.44444 3.42839V7.48185C8.44444 8.01221 8.01852 8.44786 7.5 8.44786C6.98148 8.44786 6.55556 8.01221 6.55556 7.48185V3.42839ZM7.5 11.7247C6.88889 11.7247 6.40741 11.2133 6.40741 10.6072C6.40741 10.0011 6.90741 9.48963 7.5 9.48963C8.09259 9.48963 8.59259 10.0011 8.59259 10.6072C8.59259 11.2133 8.11111 11.7247 7.5 11.7247Z" fill="#00A4E6"/>
</svg>
