<?xml version="1.0" encoding="utf-8"?>
<!-- Generator: Adobe Illustrator 25.4.1, SVG Export Plug-In . SVG Version: 6.00 Build 0)  -->
<svg version="1.1" id="Layer_1" xmlns="http://www.w3.org/2000/svg" xmlns:xlink="http://www.w3.org/1999/xlink" x="0px" y="0px"
	 viewBox="0 0 64 64" style="enable-background:new 0 0 64 64;" xml:space="preserve">
<style type="text/css">
	.st0{fill:#1669B4;}
</style>
<path class="st0" d="M50.3,30.5c0.3-2.4,1.3-8.2,5.2-9.4c0.1,0,0.3-0.1,0.4-0.2c0.1-0.1,0.2-0.2,0.3-0.3c0.1-0.1,0.1-0.3,0.1-0.4
	c0-0.1,0-0.3,0-0.4c0-0.1-0.1-0.3-0.2-0.4c-0.1-0.1-0.2-0.2-0.3-0.3c-0.1-0.1-0.3-0.1-0.4-0.1c-0.1,0-0.3,0-0.4,0.1
	c-3.6,1.1-6,5.1-6.7,11.1C47.2,42,62.8,47.4,47.5,57.1c2.5-4,0.3-15.8-0.6-17.7c-1.3-4.5-3-7.7-6.5-9.8c-1.7-1.1-3.3-2.4-4.8-3.8
	c-4.5-4.4-4-4.7-5.6-9.2c-1.1-2.7-1.3-5.7-3.6-7.7c-1-0.8-2.1-1.4-3.3-1.7c-1.1-3.4-5.9-6.6-6.1-1.4c0,2.1-0.8,3.9-3.1,4.4
	c-0.5,0.1-0.9,0.2-1.4,0.5c-0.4,0.3-0.8,0.6-1,1c-0.3,0.4-0.4,0.9-0.5,1.3c-0.1,0.5,0,1,0.1,1.4c0.2,0.6,0.1,1.2-0.1,1.8
	c-0.9,0.9-2.8,1.3-3,2.9c-0.2,0.8-0.2,1.7,0,2.5c1,2.2,4.9,1.6,7.1,2.5c0.3,0.2,0.3,0.2,0.6,1.2c0.2,0.6-0.7,1.6-1.4,2.4
	c-2.8,2.5-1.6,5.6-0.9,9.1c0.3,2.2,1.1,4.4,2.4,6.3c0.8,1.2,1.3,2.5,1.3,3.9c0,3.2-1,6.2-2.9,8.8c-0.8,0.9-2.6,0.9-3.4,1.6
	c-0.4,0.3-0.7,0.7-0.8,1.1c-0.1,0.5,0,0.9,0.2,1.3c1.1,1.5,4.9,1.3,6.4,0.5s4.6-3.2,6.3-10.4c1.9-8.1,2.2-8.8,3.9-9.8
	c0.9-0.6,2-0.8,3-0.5c-0.5,0.2-1.1,0.5-1.8,0.7c-2.8,1.2-4.7,6.2-4,9.2c0.6,2.1,1.8,3.9,3.5,5.3c-1.3,0.1-2.5,0.2-3.8,0.4L23,55.4
	c-1.5,0.4-1.4,1.5-1.5,2.4c0,0.3,0,0.7,0.1,1c0.1,0.3,0.3,0.6,0.5,0.9c0.2,0.3,0.5,0.5,0.8,0.6c0.3,0.1,0.6,0.2,1,0.2H44
	c0.1,0,0.2,0,0.3,0h0.1C50.9,59,56,52.8,56.2,49.3C56.7,42.2,49.5,37.6,50.3,30.5z"/>
</svg>
