<svg width="14" height="12" viewBox="0 0 14 12" fill="none" xmlns="http://www.w3.org/2000/svg">
<g clip-path="url(#clip0_505_8450)">
<path d="M2.93884 1.81191C2.93884 2.1606 2.80992 2.49387 2.58251 2.73853C2.35331 2.98511 2.04353 3.12189 1.72121 3.12189C1.3989 3.12189 1.08733 2.98319 0.859917 2.73853C0.630716 2.49194 0.503581 2.15867 0.503581 1.81191C0.503581 1.46515 0.628926 1.12995 0.856336 0.883363C1.08554 0.638704 1.39532 0.5 1.71942 0.5C2.04174 0.5 2.35331 0.638704 2.58072 0.885289C2.80992 1.13187 2.93705 1.46515 2.93884 1.81191ZM1.71942 4.69002C1.39532 4.69002 1.08554 4.82872 0.858127 5.07338C0.628926 5.31804 0.5 5.65324 0.5 6C0.5 6.34869 0.628926 6.68196 0.856336 6.92662C1.08554 7.17321 1.39532 7.30998 1.71763 7.30998C2.04174 7.30998 2.35152 7.17128 2.57893 6.92662C2.80813 6.68004 2.93526 6.34676 2.93526 6C2.93526 5.65324 2.80634 5.31804 2.57714 5.07338C2.34793 4.8268 2.03815 4.69002 1.71584 4.68809L1.71942 4.69002ZM1.71942 8.87811C1.39532 8.87811 1.08554 9.01681 0.858127 9.26147C0.628926 9.50806 0.5 9.84133 0.5 10.19C0.5 10.5368 0.628926 10.8701 0.856336 11.1166C1.08554 11.3632 1.39532 11.5 1.71763 11.5C2.03995 11.5 2.35152 11.3613 2.57893 11.1166C2.80813 10.8701 2.93526 10.5368 2.93526 10.19C2.93526 9.84133 2.80634 9.50806 2.57714 9.2634C2.34793 9.01681 2.03815 8.88004 1.71584 8.87811H1.71942ZM4.12066 2.50158H12.859C13.0882 2.50158 13.2994 2.37058 13.4141 2.15674C13.5287 1.94291 13.5287 1.68091 13.4141 1.46708C13.2994 1.25324 13.0882 1.12224 12.859 1.12224H4.12066C3.89146 1.12224 3.68017 1.25324 3.56556 1.46708C3.45096 1.68091 3.45096 1.94291 3.56556 2.15674C3.68017 2.37058 3.89146 2.50158 4.12066 2.50158ZM12.859 5.31033H4.12066C3.89146 5.31033 3.68017 5.44133 3.56556 5.65517C3.45096 5.869 3.45096 6.131 3.56556 6.34483C3.68017 6.55867 3.89146 6.68967 4.12066 6.68967H12.859C13.0882 6.68967 13.2994 6.55867 13.4141 6.34483C13.5287 6.131 13.5287 5.869 13.4141 5.65517C13.2994 5.44133 13.0882 5.31033 12.859 5.31033ZM12.859 9.49842H4.12066C3.89325 9.50228 3.68554 9.6352 3.57273 9.84711C3.45992 10.059 3.45992 10.3191 3.57273 10.531C3.68554 10.7429 3.89325 10.8758 4.12066 10.8797H12.859C13.0864 10.8758 13.2941 10.7429 13.4069 10.531C13.5197 10.3191 13.5197 10.059 13.4069 9.84711C13.2941 9.6352 13.0864 9.50228 12.859 9.49842Z" fill="#00A4E6"/>
</g>
<defs>
<clipPath id="clip0_505_8450">
<rect width="13" height="11" fill="white" transform="translate(0.5 0.5)"/>
</clipPath>
</defs>
</svg>
