<svg width="731" height="274" viewBox="0 0 731 274" fill="none" xmlns="http://www.w3.org/2000/svg">
<g clip-path="url(#clip0_602_8467)">
<path d="M320.136 65.2777C351.76 65.2777 362.484 84.2413 362.484 104.716C362.484 134.687 343.321 146.651 315.871 146.651H297.592V174.742H275.687V65.2777H320.136ZM313.799 128.15C331.287 128.15 339.574 119.301 339.574 106.566C339.574 95.2185 333.755 84.673 316.724 84.673H297.592V128.15H313.799Z" fill="white"/>
<path d="M488.125 130.802C488.125 155.964 471.582 175.975 440.111 175.975C408.64 175.975 392.432 156.118 392.432 130.802V65.2777H413.91V125.067C413.91 145.695 423.05 155.501 440.111 155.501C457.172 155.501 466.677 145.541 466.677 125.067V65.2777H488.003L488.125 130.802Z" fill="white"/>
<path d="M570.993 146.497C569.616 146.628 568.233 146.68 566.85 146.651H546.773V174.742H524.807V65.2777H572.516C604.11 65.2777 614.864 84.2413 614.864 104.716C614.864 123.494 607.187 135.921 592.929 142.149L618.093 174.742H591.862L570.993 146.497ZM546.773 128.305H566.088C583.575 128.305 591.862 119.301 591.862 106.442C591.862 95.0952 586.013 84.5496 568.982 84.5496H546.773V128.305Z" fill="white"/>
<path d="M731 155.501V174.742H648.011V65.2777H727.771V84.5496H669.337V112.301H718.265V130.802H669.337V155.47L731 155.501Z" fill="white"/>
<path d="M106.082 214.704C89.9829 214.728 74.091 211.026 59.6219 203.881V161.298C71.8209 172.01 87.2753 178.172 103.415 178.761C119.555 179.349 135.407 174.328 148.336 164.532C161.265 154.737 170.491 140.757 174.481 124.918C178.47 109.078 176.982 92.3343 170.264 77.4697C163.547 62.6051 152.004 50.5158 137.555 43.2122C123.107 35.9087 106.624 33.831 90.847 37.3246C75.0701 40.8183 60.9501 49.6728 50.8352 62.4156C40.7203 75.1585 35.2201 91.0218 35.2491 107.368V273.877C25.9258 273.828 16.997 270.062 10.3986 263.396C3.80022 256.729 0.0640154 247.698 4.3768e-06 238.262V107.368C-0.00602159 86.1309 6.21048 65.3695 17.8633 47.7089C29.5161 30.0484 46.0818 16.282 65.4653 8.15089C84.8488 0.0197609 106.179 -2.11087 126.759 2.02844C147.339 6.16776 166.244 16.3911 181.083 31.4055C195.922 46.4199 206.029 65.5509 210.124 86.379C214.22 107.207 212.121 128.797 204.093 148.417C196.064 168.038 182.468 184.808 165.022 196.607C147.576 208.406 127.065 214.704 106.082 214.704Z" fill="white"/>
</g>
<defs>
<clipPath id="clip0_602_8467">
<rect width="731" height="274" fill="white"/>
</clipPath>
</defs>
</svg>
